<?xml version="1.0"?>
<svg xmlns="http://www.w3.org/2000/svg" xmlns:xlink="http://www.w3.org/1999/xlink" version="1.1" viewBox="0 0 172 172" width="50px" height="50px"><g transform="translate(6.02,6.02) scale(0.93,0.93)"><g fill="none" fill-rule="none" stroke="none" stroke-width="1" stroke-linecap="butt" stroke-linejoin="miter" stroke-miterlimit="10" stroke-dasharray="" stroke-dashoffset="0" font-family="none" font-weight="none" font-size="none" text-anchor="none" style="mix-blend-mode: normal"><path d="M0,172v-172h172v172z" fill="none" fill-rule="nonzero" stroke="none"/><g fill="#3498db" fill-rule="evenodd" stroke="none"><g id="surface1"><path d="M144.48,20.64l-10.32,116.96l-48.16,13.76l-48.16,-13.76l-10.32,-116.96zM57.79469,96.32h13.76l0.33594,8.6l14.10937,4.81063l14.10938,-4.81063l1.02125,-15.48h-30.26125l-0.69875,-13.76h31.65875l1.02125,-13.76h-47.46125l-1.03469,-13.76h62.95469l-1.72,27.52l-2.41875,39.56l-27.17063,8.94938l-27.17062,-8.94938z"/></g></g><path d="" fill="none" fill-rule="nonzero" stroke="none"/><path d="" fill="none" fill-rule="nonzero" stroke="none"/><path d="" fill="none" fill-rule="nonzero" stroke="none"/><g fill="#000000" fill-rule="nonzero" stroke="none"><path d="M68.9449,15.20662h5.74c-0.14,3.24 -1.05,5.69333 -2.73,7.36c-1.68,1.66667 -4.05,2.5 -7.11,2.5v0c-3.22,0 -5.68333,-1.05667 -7.39,-3.17c-1.71333,-2.12 -2.57,-5.14 -2.57,-9.06v0v-4.78c0,-3.90667 0.88333,-6.91667 2.65,-9.03c1.77333,-2.12 4.23667,-3.18 7.39,-3.18v0c3.1,0 5.45333,0.86667 7.06,2.6c1.60667,1.73333 2.52,4.22 2.74,7.46v0h-5.76c-0.05333,-2.00667 -0.36333,-3.39 -0.93,-4.15c-0.56667,-0.76 -1.60333,-1.14 -3.11,-1.14v0c-1.54,0 -2.62667,0.53667 -3.26,1.61c-0.64,1.07333 -0.98,2.84 -1.02,5.3v0v5.37c0,2.82667 0.31667,4.76667 0.95,5.82c0.62667,1.06 1.71,1.59 3.25,1.59v0c1.50667,0 2.54667,-0.37 3.12,-1.11c0.57333,-0.73333 0.9,-2.06333 0.98,-3.99zM90.2349,17.21662v0c0,-1.16 -0.29667,-2.03667 -0.89,-2.63c-0.59333,-0.59333 -1.67,-1.20667 -3.23,-1.84v0c-2.85333,-1.08 -4.90333,-2.34667 -6.15,-3.8c-1.25333,-1.45333 -1.88,-3.17 -1.88,-5.15v0c0,-2.39333 0.85,-4.31667 2.55,-5.77c1.7,-1.45333 3.85667,-2.18 6.47,-2.18v0c1.74667,0 3.30333,0.37 4.67,1.11c1.36667,0.73333 2.42,1.77 3.16,3.11c0.73333,1.34 1.1,2.86333 1.1,4.57v0h-5.72c0,-1.32667 -0.28333,-2.34 -0.85,-3.04c-0.56667,-0.69333 -1.38333,-1.04 -2.45,-1.04v0c-1.00667,0 -1.79,0.29667 -2.35,0.89c-0.56,0.59333 -0.84,1.39 -0.84,2.39v0c0,0.78 0.31333,1.48667 0.94,2.12c0.62667,0.63333 1.73333,1.28667 3.32,1.96v0c2.77333,1.00667 4.79,2.23667 6.05,3.69c1.25333,1.46 1.88,3.31667 1.88,5.57v0c0,2.47333 -0.78667,4.40667 -2.36,5.8c-1.58,1.39333 -3.72333,2.09 -6.43,2.09v0c-1.83333,0 -3.50667,-0.37667 -5.02,-1.13c-1.50667,-0.75333 -2.68667,-1.83333 -3.54,-3.24c-0.85333,-1.40667 -1.28,-3.06667 -1.28,-4.98v0h5.76c0,1.64 0.32,2.83 0.96,3.57c0.63333,0.74 1.67333,1.11 3.12,1.11v0c2.00667,0 3.01,-1.06 3.01,-3.18zM111.8349,17.21662v0c0,-1.16 -0.29667,-2.03667 -0.89,-2.63c-0.59333,-0.59333 -1.67,-1.20667 -3.23,-1.84v0c-2.85333,-1.08 -4.90333,-2.34667 -6.15,-3.8c-1.25333,-1.45333 -1.88,-3.17 -1.88,-5.15v0c0,-2.39333 0.85,-4.31667 2.55,-5.77c1.7,-1.45333 3.86,-2.18 6.48,-2.18v0c1.74,0 3.29333,0.37 4.66,1.11c1.36667,0.73333 2.42,1.77 3.16,3.11c0.73333,1.34 1.1,2.86333 1.1,4.57v0h-5.72c0,-1.32667 -0.28333,-2.34 -0.85,-3.04c-0.56667,-0.69333 -1.38333,-1.04 -2.45,-1.04v0c-1.00667,0 -1.79,0.29667 -2.35,0.89c-0.56,0.59333 -0.84,1.39 -0.84,2.39v0c0,0.78 0.31333,1.48667 0.94,2.12c0.62667,0.63333 1.73333,1.28667 3.32,1.96v0c2.77333,1.00667 4.79,2.23667 6.05,3.69c1.25333,1.46 1.88,3.31667 1.88,5.57v0c0,2.47333 -0.78667,4.40667 -2.36,5.8c-1.57333,1.39333 -3.71667,2.09 -6.43,2.09v0c-1.83333,0 -3.50667,-0.37667 -5.02,-1.13c-1.50667,-0.75333 -2.68667,-1.83333 -3.54,-3.24c-0.85333,-1.40667 -1.28,-3.06667 -1.28,-4.98v0h5.76c0,1.64 0.32,2.83 0.96,3.57c0.64,0.74 1.68,1.11 3.12,1.11v0c2.00667,0 3.01,-1.06 3.01,-3.18z"/></g></g></g></svg>
