<?xml version="1.0"?>
<svg xmlns="http://www.w3.org/2000/svg" xmlns:xlink="http://www.w3.org/1999/xlink" version="1.1" viewBox="0 0 172 172" width="50px" height="50px"><g transform="translate(17.2,17.2) scale(0.8,0.8)"><g fill="none" fill-rule="nonzero" stroke="none" stroke-width="none" stroke-linecap="butt" stroke-linejoin="miter" stroke-miterlimit="10" stroke-dasharray="" stroke-dashoffset="0" font-family="none" font-weight="none" font-size="none" text-anchor="none" style="mix-blend-mode: normal"><path d="M0,172v-172h172v172z" fill="none" stroke="none" stroke-width="1"/><g fill="#cccccc" stroke="none" stroke-width="1"><path d="M155.74256,7.998c-0.6536,-0.71208 -1.57208,-1.118 -2.53872,-1.118h-134.40768c-0.96664,0 -1.88512,0.40592 -2.53872,1.118c-0.6536,0.71208 -0.97352,1.6684 -0.88752,2.62816l12.1088,135.62888c0.12728,1.41728 1.11456,2.61096 2.48368,3.00312l55.0744,15.73112c0.30616,0.086 0.62608,0.13072 0.94256,0.13072c0.31648,0 0.6364,-0.04472 0.94256,-0.13072l55.12256,-15.73112c1.36912,-0.39216 2.3564,-1.58584 2.48368,-3.00312l12.10192,-135.62888c0.086,-0.95976 -0.23736,-1.91608 -0.88752,-2.62816zM41.28,99.77376l24.08,6.68048v-68.61424h13.76v89.44l-37.84,-10.49544zM130.90576,75.68l-3.62576,42.14l-34.4,9.46v-15.82744l23.22,-6.3812l0.86,-12.9l-24.08,4.14864v-58.48h41.28l-1.1868,13.76h-26.3332v27.52z"/></g><g fill="#666666" stroke="none" stroke-width="1"><path d="M79.335,1.29524v-19.42h5.74v19.69c0,2.76 -0.76667,4.97333 -2.3,6.64c-1.54,1.66667 -3.52,2.5 -5.94,2.5v0c-2.60667,0 -4.63,-0.77333 -6.07,-2.32c-1.44667,-1.55333 -2.17,-3.71 -2.17,-6.47v0h5.76c0,2.68667 0.82667,4.03 2.48,4.03v0c1.66667,0 2.5,-1.55 2.5,-4.65zM101.605,2.85524v0c0,-1.16 -0.29667,-2.03667 -0.89,-2.63c-0.59333,-0.59333 -1.67,-1.20667 -3.23,-1.84v0c-2.85333,-1.08 -4.90667,-2.34667 -6.16,-3.8c-1.24667,-1.45333 -1.87,-3.17 -1.87,-5.15v0c0,-2.39333 0.85,-4.31667 2.55,-5.77c1.7,-1.45333 3.85667,-2.18 6.47,-2.18v0c1.74667,0 3.30333,0.37 4.67,1.11c1.36667,0.73333 2.41667,1.77 3.15,3.11c0.74,1.34 1.11,2.86333 1.11,4.57v0h-5.73c0,-1.32667 -0.28333,-2.34 -0.85,-3.04c-0.56,-0.69333 -1.37667,-1.04 -2.45,-1.04v0c-1,0 -1.78,0.29667 -2.34,0.89c-0.56,0.59333 -0.84,1.39 -0.84,2.39v0c0,0.78 0.31333,1.48667 0.94,2.12c0.62667,0.63333 1.73333,1.28667 3.32,1.96v0c2.77333,1.00667 4.78667,2.23667 6.04,3.69c1.26,1.46 1.89,3.31667 1.89,5.57v0c0,2.47333 -0.79,4.40667 -2.37,5.8c-1.57333,1.39333 -3.71333,2.09 -6.42,2.09v0c-1.84,0 -3.51333,-0.37667 -5.02,-1.13c-1.51333,-0.75333 -2.69667,-1.83333 -3.55,-3.24c-0.85333,-1.40667 -1.28,-3.06667 -1.28,-4.98v0h5.77c0,1.64 0.31667,2.83 0.95,3.57c0.64,0.74 1.68333,1.11 3.13,1.11v0c2.00667,0 3.01,-1.06 3.01,-3.18z"/></g><path d="M58.595,20.70524v-49.22h58.81v49.22z" fill="#ff0000" stroke="#50e3c2" stroke-width="3" opacity="0"/></g></g></svg>
