<?xml version="1.0"?>
<svg xmlns="http://www.w3.org/2000/svg" xmlns:xlink="http://www.w3.org/1999/xlink" version="1.1" viewBox="0 0 172 172" width="50px" height="50px"><g transform="translate(17.2,17.2) scale(0.8,0.8)"><g fill="none" fill-rule="nonzero" stroke="none" stroke-width="1" stroke-linecap="butt" stroke-linejoin="miter" stroke-miterlimit="10" stroke-dasharray="" stroke-dashoffset="0" font-family="none" font-weight="none" font-size="none" text-anchor="none" style="mix-blend-mode: normal"><path d="M0,172v-172h172v172z" fill="none" stroke="none"/><g fill="#e67e22" stroke="none"><g id="surface1"><path d="M155.74063,7.99531c-0.645,-0.71219 -1.57219,-1.11531 -2.53969,-1.11531h-134.40187c-0.9675,0 -1.89469,0.40313 -2.53969,1.11531c-0.65844,0.71219 -0.98094,1.66625 -0.88688,2.63375l12.10719,135.62469c0.12094,1.42438 1.11531,2.60688 2.48594,3.01l55.08031,15.72188c0.29563,0.09406 0.61813,0.13437 0.94063,0.13437c0.3225,0 0.63156,-0.04031 0.94062,-0.13437l55.12063,-15.72188c1.37062,-0.40312 2.35156,-1.58562 2.48594,-3.01l12.09375,-135.62469c0.09406,-0.9675 -0.22844,-1.92156 -0.88687,-2.63375zM126.75594,54.75781h-64.715l1.54531,17.50906h61.61094l-4.6225,51.74781l-34.60156,10.45438l-0.33594,-0.1075l-34.19844,-10.36031l-1.86781,-21.08344h16.75656l0.72563,8.18344l19.12156,4.00438l18.77219,-4.00438l2.00219,-22.145h-58.62781l-4.55531,-50.92812h84.48156z"/></g></g><g fill="#000000" stroke="none"><path d="M61.265,-17.62476v28.44h-5.73v-12.17h-8.47v12.17h-5.74v-28.44h5.74v11.51h8.47v-11.51zM83.725,-17.62476v4.79h-7.03v23.65h-5.77v-23.65h-6.91v-4.79zM87.025,-17.62476h7.5l5.37,20.57l5.35,-20.57h7.5v28.44h-5.76v-7.7l0.53,-11.85l-5.69,19.55h-3.9l-5.69,-19.55l0.53,11.85v7.7h-5.74zM123.095,-17.62476v23.67h10.08v4.77h-15.82v-28.44z"/></g></g></g></svg>
